# Blender 5.1.2
# www.blender.org
mtllib Copa1.mtl
o Copa1
v -0.052661 0.000053 -0.082438
v 0.052404 0.000054 -0.082601
v -0.052404 0.000054 0.082602
v 0.052661 0.000054 0.082438
v -0.052661 -0.000108 -0.082438
v 0.052404 -0.000108 -0.082601
v -0.052404 -0.000108 0.082602
v 0.052661 -0.000108 0.082438
v -0.052661 0.000053 -0.082438
v 0.052404 0.000054 -0.082601
v -0.052404 0.000054 0.082602
v 0.052661 0.000054 0.082438
vn -0.0000 1.0000 -0.0000
vn -0.0000 -1.0000 -0.0000
vt 0.017523 0.492516
vt 0.017523 0.360725
vt 0.095529 0.360725
vt 0.095529 0.492516
vt 0.095668 0.492514
vt 0.095668 0.359496
vt 0.016735 0.359496
vt 0.016735 0.492514
vt 0.096734 0.335356
vt 0.015670 0.335356
vt 0.015670 0.202338
vt 0.096734 0.202338
s 1
usemtl Carta_Espanhola_Adelante.001
f 1/1/1 3/2/1 4/3/1 2/4/1
f 9/5/1 11/6/1 12/7/1 10/8/1
usemtl Carta_Espanhola_Atras.001
f 5/9/2 6/10/2 8/11/2 7/12/2
