# Blender 5.1.2
# www.blender.org
mtllib Oro5.mtl
o Oro5
v -0.052661 0.000081 -0.082438
v 0.052404 0.000081 -0.082602
v -0.052403 0.000081 0.082602
v 0.052662 0.000081 0.082438
v -0.052661 -0.000081 -0.082438
v 0.052404 -0.000081 -0.082602
v -0.052403 -0.000081 0.082602
v 0.052662 -0.000081 0.082438
vn -0.0000 1.0000 -0.0000
vn -0.0000 -1.0000 -0.0000
vt 0.374310 0.986107
vt 0.374310 0.854316
vt 0.452316 0.854316
vt 0.452316 0.986107
vt 0.096734 0.335356
vt 0.015670 0.335356
vt 0.015670 0.202338
vt 0.096734 0.202338
s 1
usemtl Carta_Espanhola_Adelante.001
f 1/1/1 3/2/1 4/3/1 2/4/1
usemtl Carta_Espanhola_Atras.001
f 5/5/2 6/6/2 8/7/2 7/8/2
